<svg width="31" height="31" viewBox="0 0 31 31" fill="none" xmlns="http://www.w3.org/2000/svg">
<path d="M9.88388 7.75682C10.0997 7.75682 10.2153 7.64893 10.2307 7.43314C10.3078 6.80119 10.3887 6.30411 10.4734 5.94189C10.5659 5.57967 10.7046 5.30608 10.8896 5.12112C11.0746 4.93616 11.352 4.79359 11.7219 4.6934C12.0919 4.59321 12.6044 4.49303 13.2594 4.39284C13.4906 4.36201 13.6062 4.25026 13.6062 4.05759C13.6062 3.86493 13.506 3.74932 13.3057 3.71079C12.6429 3.58748 12.1227 3.47574 11.7451 3.37555C11.3751 3.27536 11.0938 3.13664 10.9012 2.95938C10.7085 2.78213 10.5659 2.51625 10.4734 2.16174C10.3887 1.80723 10.3078 1.314 10.2307 0.682047C10.2153 0.466258 10.0997 0.358363 9.88388 0.358363C9.68351 0.358363 9.57176 0.462403 9.54864 0.670485C9.46387 1.31785 9.37909 1.82649 9.29432 2.19642C9.21725 2.55863 9.08238 2.83608 8.88972 3.02875C8.70475 3.21371 8.42346 3.35243 8.04583 3.44491C7.6682 3.53739 7.14799 3.62602 6.48521 3.71079C6.27713 3.74162 6.17309 3.85722 6.17309 4.05759C6.17309 4.25026 6.27713 4.36201 6.48521 4.39284C7.14799 4.52385 7.66435 4.63945 8.03427 4.73964C8.4119 4.83983 8.69319 4.9824 8.87815 5.16736C9.07082 5.34462 9.20954 5.6105 9.29432 5.96501C9.37909 6.31952 9.46387 6.8166 9.54864 7.45626C9.57176 7.65664 9.68351 7.75682 9.88388 7.75682ZM2.42762 4.82056C2.56634 4.82056 2.65112 4.7512 2.68194 4.61248C2.78213 4.0653 2.87461 3.67611 2.95938 3.44491C3.04416 3.206 3.20215 3.04416 3.43335 2.95938C3.67226 2.8669 4.06145 2.77442 4.60092 2.68194C4.76276 2.64341 4.84368 2.55478 4.84368 2.41606C4.84368 2.27734 4.76276 2.18871 4.60092 2.15018C4.20017 2.07311 3.88419 2.00375 3.65299 1.9421C3.42949 1.87274 3.2638 1.78025 3.15591 1.66465C3.04801 1.54905 2.96324 1.3795 2.90158 1.15601C2.83993 0.932514 2.76672 0.624246 2.68194 0.231202C2.65112 0.0770676 2.56634 0 2.42762 0C2.28119 0 2.19642 0.0732145 2.1733 0.219642C2.08852 0.620392 2.01531 0.936367 1.95366 1.16757C1.892 1.39106 1.80337 1.56061 1.68777 1.67621C1.57988 1.78411 1.41419 1.87274 1.19069 1.9421C0.967195 2.00375 0.651219 2.07311 0.242763 2.15018C0.0809212 2.18101 0 2.26963 0 2.41606C0 2.55478 0.0809212 2.64341 0.242763 2.68194C0.651219 2.75901 0.967195 2.82837 1.19069 2.89002C1.42189 2.95168 1.59529 3.04031 1.71089 3.15591C1.8265 3.27151 1.91127 3.44106 1.96522 3.66455C2.02687 3.88805 2.09623 4.20402 2.1733 4.61248C2.19642 4.7512 2.28119 4.82056 2.42762 4.82056ZM27.0506 30.432C27.2202 30.432 27.3204 30.3472 27.3512 30.1777C27.4514 29.6382 27.54 29.2143 27.6171 28.9061C27.6941 28.6055 27.8097 28.3743 27.9639 28.2125C28.118 28.0583 28.3492 27.935 28.6575 27.8425C28.9657 27.7578 29.4012 27.6653 29.9638 27.5651C30.1487 27.5189 30.2412 27.4225 30.2412 27.2761C30.2412 27.1066 30.1487 27.0064 29.9638 26.9755C29.4012 26.8599 28.9657 26.7559 28.6575 26.6634C28.3569 26.5786 28.1296 26.4553 27.9754 26.2935C27.829 26.1394 27.7134 25.9082 27.6286 25.5999C27.5439 25.2993 27.4514 24.8832 27.3512 24.3514C27.3204 24.1818 27.2202 24.0971 27.0506 24.0971C26.9042 24.0971 26.8117 24.1818 26.7732 24.3514C26.6576 24.8909 26.5612 25.3109 26.4842 25.6114C26.4071 25.9197 26.2954 26.1509 26.1489 26.305C26.0025 26.4592 25.7713 26.5825 25.4553 26.675C25.1471 26.7675 24.7155 26.8676 24.1606 26.9755C23.9756 27.0064 23.8832 27.1066 23.8832 27.2761C23.8832 27.4225 23.9718 27.5189 24.149 27.5651C24.7116 27.6807 25.1471 27.7809 25.4553 27.8657C25.7713 27.9504 26.0025 28.0699 26.1489 28.224C26.3031 28.3859 26.4187 28.6171 26.4957 28.9176C26.5728 29.2182 26.6653 29.6382 26.7732 30.1777C26.8117 30.3472 26.9042 30.432 27.0506 30.432Z" fill="#077BFF"/>
</svg>
