<svg width="16" height="12" viewBox="0 0 16 12" fill="none" xmlns="http://www.w3.org/2000/svg">
<path d="M13.3334 1.75002C13.3334 1.75002 11.8047 0.553354 10.0001 0.416687L9.83741 0.742354C11.4687 1.14202 12.2174 1.71335 13.0001 2.41669C11.6511 1.72802 10.3201 1.08335 8.00008 1.08335C5.68008 1.08335 4.34908 1.72802 3.00008 2.41669C3.78275 1.71335 4.67341 1.07802 6.16275 0.742354L6.00008 0.416687C4.10675 0.59502 2.66675 1.75002 2.66675 1.75002C2.66675 1.75002 0.959748 4.22535 0.666748 9.08335C2.38675 11.0677 5.00008 11.0834 5.00008 11.0834L5.54675 10.3554C4.61875 10.0327 3.57208 9.45702 2.66675 8.41669C3.74608 9.23335 5.37508 10.0834 8.00008 10.0834C10.6251 10.0834 12.2541 9.23335 13.3334 8.41669C12.4284 9.45702 11.3817 10.0327 10.4534 10.3554L11.0001 11.0834C11.0001 11.0834 13.6134 11.0677 15.3334 9.08335C15.0404 4.22535 13.3334 1.75002 13.3334 1.75002ZM5.83341 7.75002C5.18875 7.75002 4.66675 7.15335 4.66675 6.41669C4.66675 5.68002 5.18875 5.08335 5.83341 5.08335C6.47808 5.08335 7.00008 5.68002 7.00008 6.41669C7.00008 7.15335 6.47808 7.75002 5.83341 7.75002ZM10.1667 7.75002C9.52208 7.75002 9.00008 7.15335 9.00008 6.41669C9.00008 5.68002 9.52208 5.08335 10.1667 5.08335C10.8114 5.08335 11.3334 5.68002 11.3334 6.41669C11.3334 7.15335 10.8114 7.75002 10.1667 7.75002Z" fill="#5865F2"/>
</svg>
