<svg width="24" height="25" viewBox="0 0 24 25" fill="none" xmlns="http://www.w3.org/2000/svg">
<path opacity="0.4" d="M16.77 19.48H7.23C6.81 19.48 6.43 19.21 6.29 18.82L2.13 7.17004C1.8 6.24004 2.86 5.45004 3.65 6.02004L7.65 8.88004C8.18 9.26004 8.94 9.03004 9.17 8.42004L11.06 3.38004C11.38 2.51004 12.61 2.51004 12.93 3.38004L14.82 8.42004C15.05 9.04004 15.8 9.26004 16.34 8.88004L20.34 6.02004C21.14 5.45004 22.19 6.25004 21.86 7.17004L17.7 18.82C17.57 19.21 17.19 19.48 16.77 19.48Z" fill="white"/>
<path d="M17 22.5H7C6.59 22.5 6.25 22.16 6.25 21.75C6.25 21.34 6.59 21 7 21H17C17.41 21 17.75 21.34 17.75 21.75C17.75 22.16 17.41 22.5 17 22.5Z" fill="white"/>
<path d="M14.5 15.25H9.5C9.09 15.25 8.75 14.91 8.75 14.5C8.75 14.09 9.09 13.75 9.5 13.75H14.5C14.91 13.75 15.25 14.09 15.25 14.5C15.25 14.91 14.91 15.25 14.5 15.25Z" fill="white"/>
</svg>
