<svg width="20" height="20" viewBox="0 0 20 20" fill="none" xmlns="http://www.w3.org/2000/svg">
<path d="M9.34545 1.32213C9.58293 0.59122 10.617 0.59122 10.8545 1.32213L12.5936 6.67452C12.6998 7.00139 13.0044 7.2227 13.3481 7.2227H18.9759C19.7444 7.2227 20.0639 8.20613 19.4422 8.65785L14.8892 11.9658C14.6111 12.1678 14.4948 12.5259 14.601 12.8528L16.3401 18.2052C16.5776 18.9361 15.741 19.5439 15.1193 19.0921L10.5663 15.7842C10.2882 15.5822 9.91169 15.5822 9.63364 15.7842L5.08063 19.0921C4.45888 19.5439 3.62233 18.9361 3.85981 18.2052L5.59891 12.8528C5.70512 12.5259 5.58877 12.1678 5.31071 11.9658L0.757698 8.65785C0.135952 8.20613 0.455487 7.2227 1.22401 7.2227H6.85184C7.19554 7.2227 7.50014 7.00139 7.60635 6.67452L9.34545 1.32213Z" fill="#16D113"/>
</svg>
