<svg width="20" height="13" viewBox="0 0 20 13" fill="none" xmlns="http://www.w3.org/2000/svg">
<path d="M10.5541 5.77422C10.7284 3.48445 11.7239 2.36445 13.6652 2.36445C15.059 2.36445 16.0048 2.96178 16.0048 3.85778H18.6181C18.6181 1.51822 16.6519 0 13.6652 0C10.0315 0 7.91591 2.36445 7.91591 6.47111C7.91591 10.6276 9.93191 12.9422 13.7648 12.9422C17.0501 12.9422 19.1159 11.3493 19.1159 8.83556C19.1159 6.42133 17.0999 4.85333 14.0137 4.85333C12.595 4.85333 11.4252 5.27645 10.5541 5.77422ZM13.7897 10.5778C11.9977 10.5778 11.027 9.78133 10.6786 8.08889C11.4004 7.59111 12.3959 7.09333 13.5657 7.09333C15.4821 7.09333 16.5026 7.71556 16.5026 8.83556C16.5026 9.88089 15.4324 10.5778 13.7897 10.5778Z" fill="white"/>
<path d="M0 7.21778L2.24498 12.6933H3.88764L6.13262 7.21778H4.9718L3.13202 11.7077H3.02251L1.18272 7.21778H0Z" fill="white"/>
</svg>
